<?xml version="1.0" encoding="UTF-8" standalone="no"?>
<svg
   xmlns:dc="http://purl.org/dc/elements/1.1/"
   xmlns:cc="http://creativecommons.org/ns#"
   xmlns:rdf="http://www.w3.org/1999/02/22-rdf-syntax-ns#"
   xmlns:svg="http://www.w3.org/2000/svg"
   xmlns="http://www.w3.org/2000/svg"
   xmlns:sodipodi="http://sodipodi.sourceforge.net/DTD/sodipodi-0.dtd"
   xmlns:inkscape="http://www.inkscape.org/namespaces/inkscape"
   height="16"
   viewBox="0 0 16 16"
   width="16"
   version="1.1"
   id="svg11"
   sodipodi:docname="icon_audio_stream_wave.svg"
   inkscape:version="0.92.4 (5da689c313, 2019-01-14)">
  <metadata
     id="metadata17">
    <rdf:RDF>
      <cc:Work
         rdf:about="">
        <dc:format>image/svg+xml</dc:format>
        <dc:type
           rdf:resource="http://purl.org/dc/dcmitype/StillImage" />
        <dc:title />
      </cc:Work>
    </rdf:RDF>
  </metadata>
  <defs
     id="defs15" />
  <sodipodi:namedview
     pagecolor="#ffffff"
     bordercolor="#666666"
     borderopacity="1"
     objecttolerance="10"
     gridtolerance="10"
     guidetolerance="10"
     inkscape:pageopacity="0"
     inkscape:pageshadow="2"
     inkscape:window-width="1920"
     inkscape:window-height="1017"
     id="namedview13"
     showgrid="false"
     inkscape:zoom="14.75"
     inkscape:cx="-2.9491525"
     inkscape:cy="8"
     inkscape:window-x="-8"
     inkscape:window-y="-8"
     inkscape:window-maximized="1"
     inkscape:current-layer="svg11" />
  <linearGradient
     id="a"
     gradientUnits="userSpaceOnUse"
     x1="8"
     x2="8"
     y1="7.4638405"
     y2="14.521197"
     gradientTransform="matrix(2.0754218,0,0,2.2655367,-15.867972,-16.920904)">
    <stop
       offset="0"
       stop-color="#ff7a7a"
       id="stop2" />
    <stop
       offset=".5"
       stop-color="#e1dc7a"
       id="stop4" />
    <stop
       offset="1"
       stop-color="#66ff9e"
       id="stop6" />
  </linearGradient>
  <path
     d="m 6.3313581,1.2033901 c -0.5748918,0 -1.0377109,0.5052146 -1.0377109,1.1327683 V 13.663842 c 0,0.627554 0.4628191,1.132768 1.0377109,1.132768 0.5748918,0 1.0377114,-0.505214 1.0377114,-1.132768 V 2.3361584 c 0,-0.6275537 -0.4628196,-1.1327683 -1.0377114,-1.1327683 z m 3.5406741,2.2655367 c -0.574892,0 -1.0377114,0.5052146 -1.0377114,1.1327683 v 6.7966099 c 0,0.627554 0.4628194,1.132769 1.0377114,1.132769 0.5748918,0 1.0377098,-0.505215 1.0377098,-1.132769 V 4.6016951 c 0,-0.6275537 -0.462818,-1.1327683 -1.0377098,-1.1327683 z M 2.9262774,5.7344635 c -0.5748918,0 -1.0377109,0.5052146 -1.0377109,1.1327683 v 2.2655364 c 0,0.6275537 0.4628191,1.1327688 1.0377109,1.1327688 0.5748917,0 1.0377108,-0.5052151 1.0377108,-1.1327688 V 6.8672318 c 0,-0.6275537 -0.4628191,-1.1327683 -1.0377108,-1.1327683 z m 10.2830386,0 c -0.574892,0 -1.037711,0.5052146 -1.037711,1.1327683 v 2.2655364 c 0,0.6275537 0.462819,1.1327688 1.037711,1.1327688 0.574892,0 1.037711,-0.5052151 1.037711,-1.1327688 V 6.8672318 c 0,-0.6275537 -0.462819,-1.1327683 -1.037711,-1.1327683 z"
     id="path9"
     inkscape:connector-curvature="0"
     style="fill:url(#a);stroke-width:2.16839671"
     sodipodi:nodetypes="ssssssssssssssssssssssssssss" />
</svg>
