<?xml version="1.0" encoding="UTF-8" standalone="no"?>
<svg
   xmlns:dc="http://purl.org/dc/elements/1.1/"
   xmlns:cc="http://creativecommons.org/ns#"
   xmlns:rdf="http://www.w3.org/1999/02/22-rdf-syntax-ns#"
   xmlns:svg="http://www.w3.org/2000/svg"
   xmlns="http://www.w3.org/2000/svg"
   xmlns:sodipodi="http://sodipodi.sourceforge.net/DTD/sodipodi-0.dtd"
   xmlns:inkscape="http://www.inkscape.org/namespaces/inkscape"
   height="16"
   viewBox="0 0 16 16"
   width="16"
   version="1.1"
   id="svg4"
   sodipodi:docname="icon_animated_texture_rect.svg"
   inkscape:version="0.92.4 (5da689c313, 2019-01-14)">
  <metadata
     id="metadata10">
    <rdf:RDF>
      <cc:Work
         rdf:about="">
        <dc:format>image/svg+xml</dc:format>
        <dc:type
           rdf:resource="http://purl.org/dc/dcmitype/StillImage" />
      </cc:Work>
    </rdf:RDF>
  </metadata>
  <defs
     id="defs8" />
  <sodipodi:namedview
     pagecolor="#ffffff"
     bordercolor="#666666"
     borderopacity="1"
     objecttolerance="10"
     gridtolerance="10"
     guidetolerance="10"
     inkscape:pageopacity="0"
     inkscape:pageshadow="2"
     inkscape:window-width="1920"
     inkscape:window-height="1017"
     id="namedview6"
     showgrid="false"
     inkscape:zoom="29.5"
     inkscape:cx="5.9047077"
     inkscape:cy="9.775859"
     inkscape:window-x="-8"
     inkscape:window-y="-8"
     inkscape:window-maximized="1"
     inkscape:current-layer="svg4" />
  <path
     inkscape:connector-curvature="0"
     style="fill:#a5efac;fill-opacity:0.60204083"
     d="M 9,5 V 6 H 8 V 7 H 6 V 8 H 5 V 8.9999996 H 4 V 10 h 2 2 2 2 V 8 H 11 V 6 H 10 V 5 Z"
     id="path2-5"
     sodipodi:nodetypes="cccccccccccccccccccc" />
  <path
     d="M 1,1 V 15 H 15 V 1 Z M 3,3 H 13 V 13 H 3 Z M 9,7 V 8 H 8 V 9 H 6 v 1 H 5 v 1 H 4 v 1 h 2 2 2 2 V 10 H 11 V 8 H 10 V 7 Z"
     id="path2"
     inkscape:connector-curvature="0"
     style="fill:#a5efac"
     sodipodi:nodetypes="cccccccccccccccccccccccccccccc" />
  <path
     inkscape:connector-curvature="0"
     style="fill:#a5efac;fill-opacity:0.35714287"
     d="m 9.0000003,3 v 1 h -1 v 1 h -2 v 1 h -1 v 0.9999996 h -1 V 8 h 2 L 6,7 H 8 V 6 H 9 V 5 h 1 v 1 h 1 v 2 h 1 V 6 H 11 V 4 H 10 V 3 Z"
     id="path2-5-7"
     sodipodi:nodetypes="ccccccccccccccccccccccccccc" />
</svg>
